<svg id="smanim-canvas" xmlns="http://www.w3.org/2000/svg" viewBox="371.38484155544336 167.96075728601028 291.37657500004457 301.45843883635894"><path stroke-dasharray="none" id="id-51454824" d="M 619.603 175.161 C 551.25 175.161 482.897 175.161 414.543 175.161 C 413.894 175.161 413.245 175.178 412.596 175.214 C 411.948 175.249 411.3 175.302 410.655 175.372 C 410.009 175.442 409.366 175.53 408.725 175.635 C 408.084 175.74 407.446 175.863 406.812 176.002 C 406.178 176.142 405.547 176.299 404.922 176.473 C 404.296 176.647 403.675 176.838 403.06 177.045 C 402.444 177.253 401.834 177.477 401.231 177.718 C 400.628 177.958 400.031 178.215 399.442 178.488 C 398.853 178.761 398.271 179.05 397.697 179.354 C 397.123 179.659 396.558 179.979 396.001 180.314 C 395.445 180.649 394.897 180.999 394.36 181.364 C 393.823 181.729 393.295 182.108 392.778 182.501 C 392.261 182.895 391.755 183.302 391.26 183.723 C 390.765 184.144 390.281 184.578 389.81 185.025 C 389.339 185.472 388.879 185.932 388.433 186.404 C 387.986 186.875 387.552 187.359 387.132 187.855 C 386.711 188.35 386.304 188.857 385.912 189.374 C 385.519 189.892 385.14 190.42 384.775 190.958 C 384.411 191.496 384.061 192.044 383.726 192.601 C 383.391 193.158 383.072 193.724 382.767 194.298 C 382.463 194.872 382.175 195.455 381.902 196.045 C 381.629 196.635 381.373 197.232 381.132 197.836 C 380.892 198.44 380.668 199.05 380.461 199.666 C 380.253 200.282 380.063 200.903 379.889 201.53 C 379.715 202.156 379.558 202.787 379.419 203.422 C 379.279 204.057 379.157 204.695 379.052 205.337 C 378.947 205.978 378.859 206.622 378.789 207.268 C 378.719 207.915 378.666 208.563 378.631 209.212 C 378.596 209.861 378.578 210.511 378.578 211.161 C 378.578 282.944 378.578 354.726 378.578 426.509 C 378.578 427.159 378.596 427.809 378.631 428.458 C 378.666 429.107 378.719 429.755 378.789 430.401 C 378.859 431.048 378.947 431.692 379.052 432.333 C 379.157 432.975 379.279 433.613 379.419 434.248 C 379.558 434.883 379.715 435.514 379.889 436.14 C 380.063 436.766 380.253 437.388 380.461 438.004 C 380.668 438.62 380.892 439.23 381.132 439.834 C 381.373 440.438 381.629 441.035 381.902 441.625 C 382.175 442.215 382.463 442.798 382.767 443.372 C 383.072 443.946 383.391 444.512 383.726 445.069 C 384.061 445.626 384.411 446.174 384.775 446.712 C 385.14 447.25 385.519 447.778 385.912 448.295 C 386.304 448.813 386.711 449.32 387.132 449.815 C 387.552 450.31 387.986 450.794 388.433 451.266 C 388.879 451.738 389.339 452.198 389.81 452.645 C 390.281 453.092 390.765 453.526 391.26 453.947 C 391.755 454.368 392.261 454.775 392.778 455.169 C 393.295 455.562 393.823 455.941 394.36 456.306 C 394.897 456.671 395.445 457.021 396.001 457.356 C 396.558 457.691 397.123 458.011 397.697 458.316 C 398.271 458.62 398.853 458.909 399.442 459.182 C 400.031 459.455 400.628 459.712 401.231 459.952 C 401.834 460.193 402.444 460.417 403.06 460.625 C 403.675 460.832 404.296 461.023 404.922 461.197 C 405.547 461.371 406.178 461.528 406.812 461.668 C 407.446 461.807 408.084 461.93 408.725 462.035 C 409.366 462.14 410.009 462.228 410.655 462.298 C 411.3 462.368 411.948 462.421 412.596 462.456 C 413.245 462.492 413.894 462.509 414.543 462.509 C 482.897 462.509 551.25 462.509 619.603 462.509 C 620.252 462.509 620.902 462.492 621.55 462.456 C 622.198 462.421 622.846 462.368 623.491 462.298 C 624.137 462.228 624.781 462.14 625.421 462.035 C 626.062 461.93 626.7 461.807 627.334 461.668 C 627.969 461.528 628.599 461.371 629.225 461.197 C 629.85 461.023 630.471 460.832 631.087 460.625 C 631.702 460.417 632.312 460.193 632.915 459.952 C 633.518 459.712 634.115 459.455 634.704 459.182 C 635.294 458.909 635.876 458.62 636.449 458.316 C 637.023 458.011 637.589 457.691 638.145 457.356 C 638.701 457.021 639.249 456.671 639.786 456.306 C 640.324 455.941 640.851 455.562 641.368 455.169 C 641.885 454.775 642.392 454.368 642.886 453.947 C 643.381 453.526 643.865 453.092 644.336 452.645 C 644.808 452.198 645.267 451.738 645.714 451.266 C 646.16 450.794 646.594 450.31 647.014 449.815 C 647.435 449.32 647.842 448.813 648.235 448.295 C 648.628 447.778 649.007 447.25 649.371 446.712 C 649.736 446.174 650.085 445.626 650.42 445.069 C 650.755 444.512 651.075 443.946 651.379 443.372 C 651.683 442.798 651.972 442.215 652.244 441.625 C 652.517 441.035 652.774 440.438 653.014 439.834 C 653.254 439.23 653.478 438.62 653.686 438.004 C 653.893 437.388 654.084 436.766 654.257 436.14 C 654.431 435.514 654.588 434.883 654.727 434.248 C 654.867 433.613 654.989 432.975 655.095 432.333 C 655.2 431.692 655.287 431.048 655.358 430.401 C 655.428 429.755 655.48 429.107 655.516 428.458 C 655.551 427.809 655.568 427.159 655.568 426.509 C 655.568 354.726 655.568 282.944 655.568 211.161 C 655.568 210.511 655.551 209.861 655.516 209.212 C 655.48 208.563 655.428 207.915 655.358 207.268 C 655.287 206.622 655.2 205.978 655.095 205.337 C 654.989 204.695 654.867 204.057 654.727 203.422 C 654.588 202.787 654.431 202.156 654.257 201.53 C 654.084 200.903 653.893 200.282 653.686 199.666 C 653.478 199.05 653.254 198.44 653.014 197.836 C 652.774 197.232 652.517 196.635 652.244 196.045 C 651.972 195.455 651.683 194.872 651.379 194.298 C 651.075 193.724 650.755 193.158 650.42 192.601 C 650.085 192.044 649.736 191.496 649.371 190.958 C 649.007 190.42 648.628 189.892 648.235 189.374 C 647.842 188.857 647.435 188.35 647.014 187.855 C 646.594 187.359 646.16 186.875 645.714 186.404 C 645.267 185.932 644.808 185.472 644.336 185.025 C 643.865 184.578 643.381 184.144 642.886 183.723 C 642.392 183.302 641.885 182.895 641.368 182.501 C 640.851 182.108 640.324 181.729 639.786 181.364 C 639.249 180.999 638.701 180.649 638.145 180.314 C 637.589 179.979 637.023 179.659 636.449 179.354 C 635.876 179.05 635.294 178.761 634.704 178.488 C 634.115 178.215 633.518 177.958 632.915 177.718 C 632.312 177.477 631.702 177.253 631.087 177.045 C 630.471 176.838 629.85 176.647 629.225 176.473 C 628.599 176.299 627.969 176.142 627.334 176.002 C 626.7 175.863 626.062 175.74 625.421 175.635 C 624.781 175.53 624.137 175.442 623.491 175.372 C 622.846 175.302 622.198 175.249 621.55 175.214 C 620.902 175.178 620.252 175.161 619.603 175.161 Z " fill-opacity="1.0" fill="#000000"/><rect id="id-50886472" x="378.578" y="175.161" width="276.99" height="287.072" fill="transparent"/><path stroke="#FFFFFF" stroke-dasharray="none" stroke-opacity="1.0" stroke-width="12" id="id-49451600" d="M 604.538 249.426 C 606.526 254.23 608.331 259.109 609.945 264.036 C 611.558 268.962 612.978 273.936 614.197 278.927 C 615.417 283.918 616.435 288.927 617.246 293.924 C 618.057 298.922 618.661 303.907 619.055 308.852 C 619.449 313.797 619.632 318.701 619.603 323.536 C 619.574 328.37 619.334 333.135 618.883 337.803 C 618.433 342.47 617.772 347.04 616.905 351.486 C 616.038 355.931 614.964 360.253 613.691 364.424 C 612.417 368.596 610.944 372.618 609.279 376.467 C 607.614 380.316 605.757 383.992 603.72 387.473 C 601.683 390.954 599.465 394.24 597.08 397.312 C 594.695 400.384 592.142 403.242 589.437 405.87 C 586.732 408.497 583.874 410.894 580.88 413.045 C 577.886 415.197 574.757 417.104 571.51 418.755 C 568.263 420.406 564.898 421.801 561.436 422.932 C 557.973 424.063 554.413 424.929 550.776 425.527 C 547.139 426.124 543.426 426.452 539.657 426.509 C 535.888 426.566 532.063 426.352 528.207 425.868 C 524.35 425.384 520.46 424.629 516.561 423.61 C 512.661 422.59 508.752 421.305 504.856 419.762 C 500.959 418.219 497.076 416.418 493.228 414.37 C 489.381 412.321 485.569 410.025 481.815 407.496 C 478.062 404.966 474.366 402.202 470.75 399.22 C 467.135 396.239 463.599 393.04 460.163 389.641 C 456.728 386.243 453.393 382.646 450.178 378.871 C 446.963 375.096 443.868 371.142 440.911 367.035 C 437.955 362.927 435.136 358.664 432.472 354.272 C 429.809 349.88 427.3 345.358 424.96 340.732 C 422.621 336.107 420.45 331.379 418.462 326.574" fill-opacity="1.0" fill="#E8C11C"/><path stroke="#FFFFFF" stroke-dasharray="none" stroke-opacity="1.0" stroke-width="12" id="id-50431672" d="M 604.538 249.426 C 602.55 244.621 599.831 240.121 596.445 236.028 C 593.059 231.935 589.006 228.25 584.38 225.06 C 579.755 221.87 574.557 219.174 568.908 217.035 C 563.259 214.897 557.16 213.316 550.751 212.329 C 544.343 211.342 537.627 210.95 530.759 211.161 C 523.892 211.372 516.873 212.186 509.867 213.586 C 502.861 214.985 495.868 216.968 489.051 219.49 C 482.234 222.012 475.593 225.071 469.284 228.598 C 462.975 232.124 456.998 236.117 451.492 240.483 C 445.985 244.849 440.951 249.588 436.505 254.59 C 432.059 259.592 428.203 264.856 425.025 270.26 C 421.847 275.663 419.349 281.206 417.589 286.759 C 415.828 292.311 414.805 297.873 414.543 303.316 C 414.282 308.758 414.782 314.079 416.032 319.156 C 417.282 324.233 419.281 329.066 421.984 333.54 C 424.687 338.015 428.093 342.132 432.122 345.795 C 436.151 349.458 440.804 352.667 445.972 355.347 C 451.139 358.027 456.821 360.178 462.885 361.75 C 468.949 363.322 475.395 364.315 482.072 364.705 C 488.749 365.095 495.657 364.883 502.635 364.073 C 509.613 363.263 516.66 361.856 523.612 359.884 C 530.565 357.912 537.422 355.375 544.023 352.333 C 550.625 349.292 556.971 345.744 562.914 341.775 C 568.856 337.805 574.394 333.414 579.4 328.702 C 584.405 323.99 588.877 318.959 592.711 313.726 C 596.545 308.493 599.741 303.057 602.225 297.547 C 604.709 292.036 606.48 286.451 607.497 280.921 C 608.514 275.392 608.777 269.918 608.28 264.627 C 607.783 259.336 606.526 254.23 604.538 249.426 Z " fill-opacity="1.0" fill="#F4D345"/><rect id="id-50438056" x="418.281" y="213.301" width="186.256" height="150.379" fill="transparent"/><path stroke="#FFFFFF" stroke-dasharray="none" stroke-opacity="1.0" stroke-width="12" id="id-37302032" d="M 511.5 288.0 C 542.513 275.142 573.525 262.284 604.538 249.426" fill-opacity="none" fill="none"/><path stroke="#FFFFFF" stroke-dasharray="none" stroke-opacity="1.0" stroke-width="12" id="id-47589240" d="M 511.5 288.0 C 526.688 263.1 541.876 238.201 557.065 213.301" fill-opacity="none" fill="none"/><path stroke="#FFFFFF" stroke-dasharray="none" stroke-opacity="1.0" stroke-width="12" id="id-50882584" d="M 511.5 288.0 C 503.451 265.372 495.403 242.745 487.354 220.117" fill-opacity="none" fill="none"/><path stroke="#FFFFFF" stroke-dasharray="none" stroke-opacity="1.0" stroke-width="12" id="id-50917104" d="M 511.5 288.0 C 484.385 279.396 457.271 270.793 430.156 262.189" fill-opacity="none" fill="none"/><path stroke="#FFFFFF" stroke-dasharray="none" stroke-opacity="1.0" stroke-width="12" id="id-50924232" d="M 511.5 288.0 C 480.427 300.883 449.354 313.766 418.281 326.65" fill-opacity="none" fill="none"/><path stroke="#FFFFFF" stroke-dasharray="none" stroke-opacity="1.0" stroke-width="12" id="id-44218848" d="M 511.5 288.0 C 498.405 313.275 485.31 338.55 472.215 363.825" fill-opacity="none" fill="none"/><path stroke="#FFFFFF" stroke-dasharray="none" stroke-opacity="1.0" stroke-width="12" id="id-46549192" d="M 511.5 288.0 C 521.793 309.697 532.087 331.394 542.38 353.09" fill-opacity="none" fill="none"/><path stroke="#FFFFFF" stroke-dasharray="none" stroke-opacity="1.0" stroke-width="12" id="id-52295672" d="M 511.5 288.0 C 539.829 294.857 568.159 301.713 596.488 308.57" fill-opacity="none" fill="none"/></svg>