<svg xmlns="http://www.w3.org/2000/svg" viewBox="580 325 475 345"><path stroke="#FFFFFF" stroke-dasharray="none" stroke-opacity="1.0" stroke-width="4.0" d="M 1046.1835775381655 537.9928689197446 C 1043.696193828299 543.9979444069296 1040.9809063349433 549.9086029161592 1038.0536197678923 555.6902229539389 C 1035.1263332008416 561.4718429917186 1031.9870609911093 567.1243980307464 1028.654191325429 572.6147784103636 C 1025.321321659749 578.1051587899806 1021.7948698300355 583.4333393191544 1018.0954919152841 588.5681103505605 C 1014.3961140005327 593.7028813819666 1010.5238269742758 598.6442193561836 1006.5013126341303 603.3631805438014 C 1002.4787982939847 608.0821417314191 998.3060750961016 612.5787044808403 994.0075846333801 616.8265303193323 C 989.7090941706587 621.0743561578242 985.2848561654871 625.073425595459 980.7607854507179 628.800314210693 C 976.2367147359487 632.5272028259271 971.61283206898 635.9818935190032 966.9162216948963 639.1441505494926 C 962.2196113208126 642.3064075799819 957.4502947886608 645.1762164387768 952.636208217747 647.7367673121181 C 947.8221216468332 650.2973181854593 942.9632871252102 652.548599324995 938.0881651209488 654.4774239233323 C 933.2130431166875 656.4062485216696 928.3216559978844 658.012607728951 923.4426549084089 659.28709234741 C 918.5636538189335 660.5615769658688 913.6970611446803 661.5041811478987 908.8713827968518 662.1093836196003 C 904.0457044490231 662.7145860913017 899.2609625688574 662.9823840758772 894.5451836291442 662.9112089551825 C 889.8294046894308 662.8400338344878 885.1826103271663 662.4298859350896 880.6320189919586 661.6831676852129 C 876.081427656751 660.936449435336 871.6270602276807 659.8531642610828 867.2950080197386 658.4396574707728 C 862.9629558117965 657.0261506804627 858.7532387013592 655.2824287595655 854.6905149719877 653.218705503557 C 850.6277912426162 651.1549822475484 846.7120795349508 648.7712671252297 842.9663160052932 646.0815226718191 C 839.2205524756354 643.3917782184087 835.6447543103449 640.3960167750259 832.2598666330019 637.1117859186729 C 828.8749789556589 633.82755506232 825.6810172968478 630.2548698617461 822.6966901850042 626.4146572064404 C 819.7123630731604 622.5744445511348 816.9376842010115 618.4667220608094 814.388906161457 614.1155505887946 C 811.8401281219027 609.7643791167798 809.5172626092785 605.1697786271753 807.4339157341574 600.3586618456467 C 805.3505688590361 595.547545064118 803.5067501802562 590.519934065092 801.9132598068567 585.305277919467 C 800.3197694334572 580.090621773842 798.9766146767107 574.6889444075692 797.8916630227188 569.1318859733497 C 796.8067113687271 563.5748275391302 795.9799677954787 557.8624135339296 795.4162749270569 552.0281042403898 C 794.852582058635 546.19379494685 794.5519424813824 540.2376171340226 794.5161171820234 534.1944589232694 C 794.4802918826646 528.1513007125163 794.7092810255734 522.0211898311322 795.2017433141569 515.8400332078745 C 795.6942056027406 509.6588765846168 796.4501387774773 503.42670257994644 797.4651149839323 497.18001595410647 C 798.4800911903873 490.93332932826655 799.754105771634 484.6721587423836 801.2796962279414 478.4331788032494 C 802.8052866842488 472.19419886411515 804.5824460158834 465.9774381974962 806.6007645688036 459.81931128050024 C 808.6190831217237 453.66118436350433 810.8785516354549 447.56171945092706 813.3659353453212 441.55664396374203" fill-opacity="none" fill="#E8C11C"/><path stroke="#FFFFFF" stroke-dasharray="none" stroke-opacity="1.0" stroke-width="4.0" d="M 1046.1835775381655 537.9928689197446 C 1048.6709612480317 531.9877934325596 1050.243959471395 525.6042248816616 1050.8659103230161 518.9909451627689 C 1051.4878611746371 512.377665443876 1051.158719072727 505.5351592337371 1049.8861553355298 498.6229048926594 C 1048.6135915983323 491.7106505515817 1046.3976994900192 484.7291546676885 1043.2901248300018 477.84113503499583 C 1040.1825501699843 470.95311540230324 1036.1835207074653 464.1590768328111 1031.3862418619092 457.6173680510442 C 1026.5889630163529 451.07565926927737 1020.9937863726936 444.7867597066643 1014.7311187686244 438.8972448078715 C 1008.4684511645552 433.0077299090787 1001.5387515810207 427.5180313072827 994.1035305951496 422.55609746240583 C 986.6683096092785 417.594163617529 978.7281121365871 413.16035818180825 970.4680004385588 409.3580199026404 C 962.2078887405305 405.55568162347254 953.6284681876097 402.3850891681805 944.9296994199692 399.9201395666601 C 936.2309306523289 397.4551899651397 927.4134511888919 395.69606386962545 918.6827701112272 394.6837612495249 C 909.9520890335624 393.67145862942425 901.3088461993952 393.40605367478577 892.9544897554426 393.89373218152735 C 884.6001333114901 394.38141068826894 876.535275535244 395.6221369152087 868.9478841471224 397.586993243833 C 861.360492759001 399.55184957245723 854.2511238268473 402.24069200157174 847.7854754830857 405.5908516539331 C 841.319827139324 408.9410113062945 835.4983732410344 412.95224265403203 830.4567944721349 417.5310558882212 C 825.4152157032354 422.1098691224104 821.1538815530126 427.25592866911416 817.7721109788965 432.8492952672858 C 814.3903404047805 438.4426618654574 811.8883812513561 444.48292558615805 810.3245467055012 450.82930594276206 C 808.7607121596463 457.17568629936613 808.1351168323066 463.8277181757545 808.4623414799997 470.6303625988114 C 808.7895661276929 477.43300702186826 810.0695867686451 484.38576543660696 812.2725699490442 491.3265898334907 C 814.4755531294434 498.26741423037447 817.6013373961572 505.1957959274262 821.5770700641867 511.95025506351084 C 825.5528027322164 518.7047141995954 830.3781924264399 525.2847557511493 835.9407737412524 531.5370186242735 C 841.503355056065 537.7892814973978 847.802720318732 543.7133074736942 854.6920501604118 549.1710252208019 C 861.5813800020917 554.6287429679097 869.0601695147614 559.6197524983787 876.9541104768518 564.0277283034328 C 884.8480514389423 568.435704108487 893.1565653160798 572.2603231345927 901.6860054926786 575.412444948062 C 910.2154456692775 578.5645667615313 918.9651870362378 581.0439603483717 927.7312992844793 582.7928384575903 C 936.4974115327208 584.5417165668089 945.2792522078239 585.5599510259113 953.872142861814 585.8238098342305 C 962.4650335158044 586.0876686425495 970.8683443893973 585.5971324622928 978.8862194324678 584.3636342250934 C 986.9040944755383 583.130135987894 994.535946070781 581.1537660948752 1001.6038985771459 578.480587818794 C 1008.6718510835108 575.8074095427128 1015.1753865020037 572.4376187965519 1020.96292686793 568.4497553267541 C 1026.7504672338566 564.4618918569563 1031.8215883875914 559.8562479276904 1036.0580976579581 554.740167327832 C 1040.2946069283248 549.6240867279735 1043.696193828299 543.9979444069296 1046.1835775381655 537.9928689197446 Z " fill-opacity="none" fill="#F4D345"/><path stroke="#FFFFFF" stroke-dasharray="none" stroke-opacity="1.0" stroke-width="2.7428571428571433" d="M 929.7747564417433 489.7747564417433 C 963.0344196121496 503.5513600068865 996.294082782556 517.3279635720297 1029.5537459529623 531.104567137173" fill-opacity="none" fill="none"/><path stroke="none" stroke-dasharray="none" stroke-opacity="1.0" stroke-width="4.0" d="M 1046.1835775381655 537.9928689197446 C 1041.788350640193 532.9251297280202 1037.3931237422205 527.8573905362958 1032.997896844248 522.7896513445714 C 1030.7017962500577 528.3329285396392 1028.405695655867 533.8762057347069 1026.1095950616766 539.4194829297746 C 1032.8009225538394 538.9439449264312 1039.4922500460025 538.468406923088 1046.1835775381655 537.9928689197446 Z " fill-opacity="1.0" fill="#FFFFFF"/><path stroke="#FFFFFF" stroke-dasharray="none" stroke-opacity="1.0" stroke-width="2.6664044229926027" d="M 929.7747564417433 489.7747564417433 C 958.663616537289 481.751508314448 987.5524766328347 473.7282601871527 1016.4413367283803 465.7050120598575" fill-opacity="none" fill="none"/><path stroke="none" stroke-dasharray="none" stroke-opacity="1.0" stroke-width="4.0" d="M 1033.7848812846873 460.88822244192767 C 1027.2009014962634 459.6032282218531 1020.6169217078394 458.31823400177854 1014.0329419194154 457.033239781704 C 1015.6385384587254 462.814421300473 1017.2441349980353 468.59560281924195 1018.8497315373453 474.37678433801096 C 1023.8281147864593 469.8805970393165 1028.8064980355732 465.38440974062206 1033.7848812846873 460.88822244192767 Z " fill-opacity="1.0" fill="#FFFFFF"/><path stroke="#FFFFFF" stroke-dasharray="none" stroke-opacity="1.0" stroke-width="2.5617610261149495" d="M 929.7747564417433 489.7747564417433 C 938.4295412623541 467.3008873245657 947.0843260829647 444.8270182073881 955.7391109035755 422.3531490902105" fill-opacity="none" fill="none"/><path stroke="none" stroke-dasharray="none" stroke-opacity="1.0" stroke-width="4.0" d="M 962.2078887405305 405.55568162347254 C 957.2520515504225 410.076707806226 952.2962143603145 414.5977339889795 947.3403771702066 419.118760171733 C 952.9395329924525 421.275019450718 958.5386888146985 423.431278729703 964.1378446369445 425.587538008688 C 963.4945260048065 418.91025254694955 962.8512073726686 412.23296708521104 962.2078887405305 405.55568162347254 Z " fill-opacity="1.0" fill="#FFFFFF"/><path stroke="#FFFFFF" stroke-dasharray="none" stroke-opacity="1.0" stroke-width="2.678481871905714" d="M 929.7747564417433 489.7747564417433 C 912.8035403202989 464.0535843024579 895.8323241988546 438.3324121631726 878.8611080774102 412.6112400238872" fill-opacity="none" fill="none"/><path stroke="none" stroke-dasharray="none" stroke-opacity="1.0" stroke-width="4.0" d="M 868.9478841471224 397.586993243833 C 869.748250993876 404.24727949223234 870.5486178406295 410.9075657406317 871.3489846873831 417.56785198903106 C 876.3570669474011 414.2634440122685 881.3651492074192 410.9590360355059 886.3732314674373 407.6546280587433 C 880.5647823606657 404.29874978710654 874.7563332538941 400.94287151546973 868.9478841471224 397.586993243833 Z " fill-opacity="1.0" fill="#FFFFFF"/><path stroke="#FFFFFF" stroke-dasharray="none" stroke-opacity="1.0" stroke-width="2.7438980629148966" d="M 929.7747564417433 489.7747564417433 C 896.0801526366431 476.82932238439855 862.3855488315429 463.8838883270538 828.6909450264427 450.93845426970904" fill-opacity="none" fill="none"/><path stroke="none" stroke-dasharray="none" stroke-opacity="1.0" stroke-width="4.0" d="M 811.8883812513561 444.48292558615805 C 816.4133143957931 449.4351957765228 820.9382475402301 454.3874659668876 825.4631806846671 459.33973615725233 C 827.6150235791841 453.7388815655568 829.7668664737012 448.1380269738613 831.9187093682182 442.5371723821658 C 825.2419333292642 443.1857567834966 818.5651572903101 443.8343411848273 811.8883812513561 444.48292558615805 Z " fill-opacity="1.0" fill="#FFFFFF"/><path stroke="#FFFFFF" stroke-dasharray="none" stroke-opacity="1.0" stroke-width="2.6727226077181356" d="M 929.7747564417433 489.7747564417433 C 900.2050286092382 496.8888558502622 870.6353007767332 504.00295525878107 841.065572944228 511.11705466729995" fill-opacity="none" fill="none"/><path stroke="none" stroke-dasharray="none" stroke-opacity="1.0" stroke-width="4.0" d="M 823.5649363982016 515.3274846315531 C 830.1002202409193 516.8407807344731 836.635504083637 518.3540768373932 843.1707879263546 519.8673729403132 C 841.7673112716036 514.033827424971 840.3638346168525 508.20028190962887 838.9603579621014 502.3667363942867 C 833.8285507741348 506.68698580670883 828.6967435861682 511.00723521913096 823.5649363982016 515.3274846315531 Z " fill-opacity="1.0" fill="#FFFFFF"/><path stroke="#FFFFFF" stroke-dasharray="none" stroke-opacity="1.0" stroke-width="2.5608985140590343" d="M 929.7747564417433 489.7747564417433 C 922.2817938826564 512.6194886545852 914.7888313235695 535.464220867427 907.2958687644827 558.3089530802689" fill-opacity="none" fill="none"/><path stroke="none" stroke-dasharray="none" stroke-opacity="1.0" stroke-width="4.0" d="M 901.6860054926786 575.412444948062 C 906.4065418945788 570.6462582040983 911.127078296479 565.8800714601347 915.8476146983793 561.1138847161709 C 910.1464507424482 559.2439302922362 904.4452867865172 557.3739758683016 898.7441228305862 555.5040214443669 C 899.724750384617 562.1401626122653 900.7053779386479 568.7763037801636 901.6860054926786 575.412444948062 Z " fill-opacity="1.0" fill="#FFFFFF"/><path stroke="#FFFFFF" stroke-dasharray="none" stroke-opacity="1.0" stroke-width="2.6794949667513213" d="M 929.7747564417433 489.7747564417433 C 946.7854364087862 515.5557390482724 963.796116375829 541.3367216548013 980.8067963428718 567.1177042613303" fill-opacity="none" fill="none"/><path stroke="none" stroke-dasharray="none" stroke-opacity="1.0" stroke-width="4.0" d="M 990.7200202731597 582.1419510413846 C 989.9196534264061 575.4816647929853 989.1192865796526 568.8213785445859 988.3189197328991 562.1610922961866 C 983.310837472881 565.4655002729492 978.3027552128628 568.7699082497116 973.2946729528448 572.0743162264743 C 979.1031220596165 575.4301944981111 984.9115711663881 578.7860727697478 990.7200202731597 582.1419510413846 Z " fill-opacity="1.0" fill="#FFFFFF"/><path stroke="#FFFFFF" stroke-dasharray="none" stroke-opacity="1.0" stroke-width="4.0" d="M 889.2610263705276 389.72735940249834 C 892.3702560078605 397.23370376147966 895.1945916500244 404.8580349022012 897.7174898411747 412.55569354844613 C 900.2403880323249 420.2533521946911 902.461837196868 428.0243030279648 904.3688252672523 435.8230279518826 C 906.2758133376366 443.6217528758004 907.868331564195 451.4482161081541 909.1370518222639 459.256574390454 C 910.4057720803327 467.0649326727539 911.3506885487534 474.8551501785919 911.9662664094828 482.58159595766404 C 912.5818442702124 490.30804173673613 912.8680806988485 497.97068033846625 912.8232990746499 505.5246281019077 C 912.7785174504512 513.0785758653492 912.4027179788853 520.5237981313834 911.6981018933581 527.8166847483081 C 910.9934858078307 535.1095713652329 909.9600563412703 542.2500888717336 908.6038667737805 549.196411914508 C 907.2476772062907 556.1427349572824 905.5687337603576 562.8948316651233 903.5768707936082 569.4131518471546 C 901.5850078268588 575.9314720291859 899.280234478384 582.2159857779684 896.6760508844824 588.2298817548792 C 894.0718672905809 594.24377773179 891.1682853998008 599.9870283437955 887.9823128503579 605.425992683814 C 884.7963403009148 610.8649570238326 881.3279917107286 615.9996101367393 877.597582820924 620.7998759558714 C 873.8671739311193 625.6001417750035 869.8747218576056 630.0659982757209 865.6436122609268 634.171286846162 C 861.412502664248 638.2765754166034 856.9427549576349 642.0212772208317 852.2605505455628 645.3834577875948 C 847.5783461334906 648.745638354358 842.6837064989088 651.7252822572564 837.6053018371945 654.3049363272671 C 832.5268971754801 656.8845903972777 827.2647507874335 659.0642427983993 821.8496855275059 660.8311262862869 C 816.4346202675783 662.5980097741744 810.8666609812404 663.952116241991 805.1784218122308 664.8855140543369 C 799.4901826432213 665.8189118666829 793.6816896903906 666.3315967409306 787.7869660157489 666.420565641799 C 781.8922423411074 666.5095345426673 775.9113149909002 666.1747870619481 769.8792170561145 665.4182839723212 C 763.8471191213287 664.6617808826943 757.7638782785123 663.4835256551569 751.665126916668 661.8904198820833 C 745.5663755548238 660.2973141090097 739.4521416563198 658.2893650999079 733.3582391509932 655.8783343519863 C 727.2643366456665 653.4673036040647 721.1907934936377 650.6532021796451 715.1731852799953 647.4525135879685 C 709.1555770663531 644.2518249962918 703.1939314011634 640.6645639227982 697.3231684335587 636.7117426346865 C 691.4524054659541 632.7589213465749 685.6725521322434 628.4405579802298 680.0174637387818 623.7819472111871 C 674.3623753453202 619.1233364421446 668.8320778388558 614.1244996451012 663.4589647604539 608.8147173469862 C 658.0858516820521 603.5049350488712 652.8699476846981 597.8842316120948 647.8418047595162 591.9855301275726 C 642.8136618343342 586.0868286430504 637.9733030515133 579.9101561752791 633.349080658074 573.4916923860214 C 628.7248582646348 567.0732285967639 624.3167934774931 560.4130029352967 620.1507063953927 553.5500274607754 C 615.9846193132925 546.687051986254 612.0605290511271 539.6213581874692 608.4014208423137 532.3943331402446 C 604.7423126335002 525.16730809302 601.3482032668052 517.778984956483 598.2389736294724 510.27264059750166" fill-opacity="none" fill="#E8C11C"/><path stroke="#FFFFFF" stroke-dasharray="none" stroke-opacity="1.0" stroke-width="4.0" d="M 889.2610263705276 389.72735940249834 C 886.1517967331948 382.22101504351707 881.8998131082268 375.1883371422123 876.6041765202685 368.79323639238913 C 871.3085399323103 362.398135642566 864.9696384901417 356.6410807309838 857.7352130327336 351.6562513937365 C 850.5007875753254 346.6714220564893 842.3713683022092 342.4591836237882 833.5364276692532 339.1177107786866 C 824.7014870362972 335.7762379335851 815.1616725422437 333.30577556731157 805.1393287384055 331.7639027708123 C 795.1169849345674 330.22202997431305 784.6128463425763 329.60885974899224 773.8717330250885 329.93868325939104 C 763.1306197076007 330.26850676978995 752.1533188637218 331.54129984366807 741.19567855342 333.72739748019126 C 730.2380382431181 335.91349511671444 719.3008615344178 339.0127371002649 708.6390613136692 342.95288936710165 C 697.9772610929206 346.8930416339383 687.5916187464986 351.67381541657045 677.7241925438857 357.18378517288807 C 667.8567663412725 362.69375492920574 658.5082794504355 368.932516842292 649.8966171483356 375.7546640261767 C 641.2849548462358 382.57681121006146 633.4107482679021 389.9818436804318 626.4575216243865 397.79717227183716 C 619.5042949808708 405.61250086324253 613.4725578630913 413.83755280268485 608.5028920280542 422.28062672279066 C 603.5332261930173 430.7237006428964 599.625995859625 439.38417776421113 596.8722668841261 448.0602082603158 C 594.1185379086272 456.73623875642045 592.518512107437 465.42718677484385 592.1094812978206 473.9304923036649 C 591.7004504882042 482.43379783248594 592.4824446473788 490.74883767797144 594.4372378296974 498.6818131237265 C 596.3920310120161 506.61478856948156 599.5194799537965 514.1651182203574 603.7466931714415 521.1568264680719 C 607.9739063890866 528.1485347157864 613.3005740768651 534.5811091491662 619.6025475379895 540.3046256919026 C 625.904520999114 546.0281422346391 633.1813383719759 551.042181419311 641.263398801678 555.2298809847628 C 649.3454592313801 559.4175805502144 658.2321703965721 562.7786335866076 667.716409631724 565.2347039973879 C 677.2006488668758 567.6907744081682 687.2817210871835 569.2416821918429 697.7246666421242 569.85128032527 C 708.167612197065 570.4608784586969 718.9716657397739 570.1291222653988 729.8850170868549 568.8637439902731 C 740.7983684339358 567.5983657151473 751.8202177632319 565.3994580957544 762.6936787227825 562.318271093854 C 773.5671396823329 559.2370840919534 784.291415373484 555.2738435228384 794.6165549960194 550.5209206738787 C 804.9416946185547 545.7679978249188 814.866941459419 540.2257410302678 824.1609676917578 534.0233237241717 C 833.4549939240968 527.8209064180757 842.1171184035148 520.9587831658307 849.9454529086014 513.5968895423397 C 857.773787413688 506.23499591884865 864.7677582182621 498.3738714655824 870.7643567752074 490.1967354883738 C 876.7609553321527 482.01959951116515 881.7597421603014 473.52705129930007 885.6442104853231 464.91702675843425 C 889.5286788103449 456.3070022175685 892.2985439457364 447.580132362702 893.8892486172331 438.9398144363549 C 895.4799532887298 430.2994965100078 895.8913809161172 421.74636374733416 895.113942351591 413.47976409871814 C 894.3365037870649 405.2131644501021 892.3702560078605 397.23370376147966 889.2610263705276 389.7273594024984 Z " fill-opacity="none" fill="#F4D345"/><path stroke="#FFFFFF" stroke-dasharray="none" stroke-opacity="1.0" stroke-width="3.428571428571429" d="M 743.75 450.0 C 785.3245789630079 432.77924554357094 826.8991579260158 415.55849108714193 868.4737368890237 398.33773663071287" fill-opacity="none" fill="none"/><path stroke="none" stroke-dasharray="none" stroke-opacity="1.0" stroke-width="4.0" d="M 889.2610263705277 389.72735940249834 C 880.8968670053239 389.1329368983192 872.5327076401202 388.53851439414007 864.1685482749165 387.9440918899609 C 867.0386740176546 394.87318838379554 869.9087997603929 401.8022848776302 872.778925503131 408.73138137146486 C 878.2729591255966 402.39670738180934 883.7669927480621 396.06203339215386 889.2610263705277 389.72735940249834 Z " fill-opacity="1.0" fill="#FFFFFF"/><path stroke="#FFFFFF" stroke-dasharray="none" stroke-opacity="1.0" stroke-width="3.333005528740753" d="M 743.75 450.0 C 762.1927696454463 417.37399745967184 780.6355392908927 384.7479949193436 799.078308936339 352.1219923790154" fill-opacity="none" fill="none"/><path stroke="none" stroke-dasharray="none" stroke-opacity="1.0" stroke-width="4.0" d="M 810.1505006403246 332.5348391690619 C 803.1952445373371 337.2185249550488 796.2399884343497 341.9022107410357 789.2847323313622 346.58589652702256 C 795.8137834013467 350.27662709501783 802.3428344713312 353.967357663013 808.8718855413157 357.65808823100826 C 809.2980905743186 349.2836718770261 809.7242956073217 340.909255523044 810.1505006403246 332.5348391690619 Z " fill-opacity="1.0" fill="#FFFFFF"/><path stroke="#FFFFFF" stroke-dasharray="none" stroke-opacity="1.0" stroke-width="3.2022012826436868" d="M 743.75 450.0 C 731.5355397301363 422.4858971392257 719.3210794602726 394.97179427845134 707.1066191904089 367.45769141767704" fill-opacity="none" fill="none"/><path stroke="none" stroke-dasharray="none" stroke-opacity="1.0" stroke-width="4.0" d="M 697.9772610929206 346.8930416339383 C 697.5929388281269 355.2694845780993 697.2086165633332 363.64592752226025 696.8242942985396 372.0223704664212 C 703.6791775597858 368.97925110059174 710.534060821032 365.9361317347623 717.3889440822783 362.8930123689329 C 710.9183830858257 357.55968879060134 704.4478220893732 352.22636521226985 697.9772610929206 346.8930416339383 Z " fill-opacity="1.0" fill="#FFFFFF"/><path stroke="#FFFFFF" stroke-dasharray="none" stroke-opacity="1.0" stroke-width="3.3481023398821423" d="M 743.75 450.0 C 706.0149034447363 442.26605845587574 668.2798068894726 434.5321169117515 630.544710334209 426.7981753676272" fill-opacity="none" fill="none"/><path stroke="none" stroke-dasharray="none" stroke-opacity="1.0" stroke-width="4.0" d="M 608.5028920280542 422.28062672279066 C 615.0972400226331 427.4601126554286 621.6915880172119 432.6395985880666 628.2859360117907 437.81908452070456 C 629.7917855600695 430.4718117519863 631.2976351083483 423.1245389832681 632.8034846566272 415.77726621454985 C 624.7032871137696 417.9450530506301 616.603089570912 420.1128398867104 608.5028920280542 422.28062672279066 Z " fill-opacity="1.0" fill="#FFFFFF"/><path stroke="#FFFFFF" stroke-dasharray="none" stroke-opacity="1.0" stroke-width="3.4298725786436206" d="M 743.75 450.0 C 702.5256411908348 468.3398482907858 661.3012823816696 486.67969658157165 620.0769235725045 505.01954487235747" fill-opacity="none" fill="none"/><path stroke="none" stroke-dasharray="none" stroke-opacity="1.0" stroke-width="4.0" d="M 599.5194799537965 514.1651182203573 C 607.8962233846992 514.542834374142 616.2729668156018 514.9205505279267 624.6497102465044 515.2982666817114 C 621.6011857971711 508.4457854754754 618.5526613478378 501.59330426923947 615.5041368985045 494.7408230630035 C 610.1759179169352 501.21558811545475 604.8476989353659 507.69035316790604 599.5194799537965 514.1651182203573 Z " fill-opacity="1.0" fill="#FFFFFF"/><path stroke="#FFFFFF" stroke-dasharray="none" stroke-opacity="1.0" stroke-width="3.340903259647669" d="M 743.75 450.0 C 723.9018410819924 482.4242287525048 704.053682163985 514.8484575050096 684.2055232459774 547.2726862575144" fill-opacity="none" fill="none"/><path stroke="none" stroke-dasharray="none" stroke-opacity="1.0" stroke-width="4.0" d="M 672.4585292492999 566.462739202778 C 679.572536072403 562.0238872204698 686.6865428955061 557.5850352381615 693.8005497186092 553.1461832558532 C 687.4038654035213 549.230518590294 681.0071810884334 545.3148539247348 674.6104967733455 541.3991892591756 C 673.8931742653303 549.7537059070431 673.1758517573151 558.1082225549106 672.4585292492999 566.462739202778 Z " fill-opacity="1.0" fill="#FFFFFF"/><path stroke="#FFFFFF" stroke-dasharray="none" stroke-opacity="1.0" stroke-width="3.2011231425737927" d="M 743.75 450.0 C 757.31917553173 476.8149871234981 770.88835106346 503.6299742469962 784.4575265951901 530.4449613704943" fill-opacity="none" fill="none"/><path stroke="none" stroke-dasharray="none" stroke-opacity="1.0" stroke-width="4.0" d="M 794.6165549960194 550.5209206738787 C 794.5762054129736 542.135762839279 794.535855829928 533.7506050046793 794.4955062468822 525.3654471700796 C 787.8035198124207 528.7517899703561 781.1115333779594 532.1381327706325 774.419546943498 535.524475570909 C 781.1518829610051 540.5232906052322 787.8842189785122 545.5221056395554 794.6165549960194 550.5209206738787 Z " fill-opacity="1.0" fill="#FFFFFF"/><path stroke="#FFFFFF" stroke-dasharray="none" stroke-opacity="1.0" stroke-width="3.3493687084391515" d="M 743.75 450.0 C 781.5728434800241 457.7519255867987 819.3956869600482 465.50385117359735 857.2185304400723 473.2557767603961" fill-opacity="none" fill="none"/><path stroke="none" stroke-dasharray="none" stroke-opacity="1.0" stroke-width="4.0" d="M 879.260348746227 477.77332540523264 C 872.6660007516482 472.59383947259465 866.0716527570694 467.41435353995666 859.4773047624906 462.23486760731873 C 857.9714552142117 469.58214037603693 856.4656056659329 476.9294131447552 854.959756117654 484.2766859134734 C 863.0599536605116 482.1088990773931 871.1601512033693 479.94111224131285 879.260348746227 477.77332540523264 Z " fill-opacity="1.0" fill="#FFFFFF"/></svg>