<svg id="smanim-canvas" xmlns="http://www.w3.org/2000/svg" viewBox="371.38484155544336 203.96075728601028 307.70813724762894 229.52762741743052"><rect id="id-42107808" x="507.994" y="252.092" width="163.906" height="172.006" fill="transparent"/><path stroke="#FFFFFF" stroke-dasharray="none" stroke-opacity="1.0" stroke-width="5" id="id-51818496" d="M 668.906 344.315 C 667.316 348.159 665.58 351.942 663.708 355.642 C 661.836 359.342 659.829 362.96 657.698 366.473 C 655.567 369.987 653.312 373.397 650.947 376.684 C 648.582 379.97 646.106 383.132 643.534 386.152 C 640.962 389.173 638.294 392.05 635.546 394.769 C 632.797 397.488 629.968 400.047 627.076 402.432 C 624.183 404.817 621.227 407.028 618.224 409.052 C 615.221 411.076 612.171 412.913 609.093 414.552 C 606.015 416.19 602.909 417.631 599.792 418.866 C 596.674 420.1 593.547 421.128 590.427 421.944 C 587.308 422.759 584.196 423.363 581.111 423.75 C 578.025 424.137 574.966 424.309 571.951 424.263 C 568.936 424.218 565.964 423.955 563.055 423.477 C 560.145 422.999 557.297 422.306 554.527 421.401 C 551.758 420.497 549.066 419.381 546.468 418.06 C 543.871 416.739 541.367 415.214 538.972 413.492 C 536.577 411.771 534.291 409.853 532.126 407.752 C 529.962 405.65 527.92 403.363 526.012 400.905 C 524.104 398.448 522.33 395.819 520.7 393.034 C 519.07 390.249 517.585 387.309 516.253 384.23 C 514.921 381.15 513.742 377.933 512.723 374.595 C 511.704 371.258 510.846 367.801 510.152 364.244 C 509.458 360.688 508.93 357.032 508.569 353.298 C 508.209 349.564 508.017 345.752 507.994 341.884 C 507.971 338.017 508.117 334.094 508.432 330.138 C 508.747 326.182 509.23 322.193 509.879 318.195 C 510.528 314.197 511.343 310.19 512.318 306.197 C 513.294 302.204 514.43 298.226 515.72 294.284 C 517.011 290.343 518.456 286.44 520.046 282.596" fill-opacity="1.0" fill="#E8C11C"/><path stroke="#FFFFFF" stroke-dasharray="none" stroke-opacity="1.0" stroke-width="5" id="id-40774688" d="M 668.906 344.315 C 670.496 340.472 671.502 336.387 671.9 332.154 C 672.298 327.922 672.087 323.543 671.273 319.119 C 670.46 314.695 669.043 310.227 667.056 305.818 C 665.069 301.41 662.512 297.062 659.445 292.875 C 656.378 288.688 652.8 284.664 648.796 280.894 C 644.792 277.125 640.361 273.612 635.607 270.436 C 630.853 267.26 625.776 264.423 620.495 261.989 C 615.213 259.556 609.728 257.526 604.166 255.949 C 598.604 254.371 592.966 253.245 587.384 252.598 C 581.802 251.95 576.275 251.78 570.934 252.092 C 565.592 252.404 560.436 253.198 555.584 254.456 C 550.733 255.713 546.187 257.434 542.053 259.578 C 537.919 261.722 534.197 264.289 530.974 267.22 C 527.75 270.15 525.025 273.444 522.863 277.024 C 520.701 280.603 519.101 284.469 518.101 288.531 C 517.101 292.592 516.701 296.85 516.911 301.203 C 517.12 305.557 517.938 310.007 519.347 314.449 C 520.755 318.891 522.754 323.325 525.296 327.648 C 527.838 331.971 530.923 336.182 534.48 340.184 C 538.037 344.185 542.064 347.977 546.469 351.469 C 550.874 354.962 555.656 358.157 560.703 360.978 C 565.751 363.799 571.063 366.247 576.517 368.264 C 581.97 370.281 587.565 371.868 593.169 372.987 C 598.774 374.107 604.389 374.758 609.884 374.927 C 615.378 375.096 620.751 374.782 625.877 373.993 C 631.004 373.203 635.883 371.938 640.403 370.228 C 644.922 368.517 649.08 366.36 652.78 363.808 C 656.481 361.256 659.723 358.308 662.432 355.034 C 665.141 351.759 667.316 348.159 668.906 344.315 Z " fill-opacity="1.0" fill="#F4D345"/><rect id="id-40774288" x="519.901" y="252.796" width="149.005" height="120.303" fill="transparent"/><path stroke="#FFFFFF" stroke-dasharray="none" stroke-opacity="1.0" stroke-width="3.2" id="id-40773656" d="M 594.476 313.456 C 619.286 323.742 644.096 334.029 668.906 344.315" fill-opacity="none" fill="none"/><path stroke="#FFFFFF" stroke-dasharray="none" stroke-opacity="1.0" stroke-width="3.2" id="id-41863320" d="M 594.476 313.456 C 617.14 307.97 639.803 302.485 662.467 297.0" fill-opacity="none" fill="none"/><path stroke="#FFFFFF" stroke-dasharray="none" stroke-opacity="1.0" stroke-width="3.2" id="id-41864480" d="M 594.476 313.456 C 602.711 296.098 610.945 278.741 619.18 261.383" fill-opacity="none" fill="none"/><path stroke="#FFFFFF" stroke-dasharray="none" stroke-opacity="1.0" stroke-width="3.2" id="id-41866816" d="M 594.476 313.456 C 584.0 293.236 573.524 273.016 563.048 252.796" fill-opacity="none" fill="none"/><path stroke="#FFFFFF" stroke-dasharray="none" stroke-opacity="1.0" stroke-width="3.2" id="id-41862592" d="M 594.476 313.456 C 569.618 303.149 544.759 292.843 519.901 282.536" fill-opacity="none" fill="none"/><path stroke="#FFFFFF" stroke-dasharray="none" stroke-opacity="1.0" stroke-width="3.2" id="id-50271376" d="M 594.476 313.456 C 572.784 320.339 551.093 327.221 529.401 334.104" fill-opacity="none" fill="none"/><path stroke="#FFFFFF" stroke-dasharray="none" stroke-opacity="1.0" stroke-width="3.2" id="id-50272600" d="M 594.476 313.456 C 588.037 331.558 581.598 349.66 575.159 367.762" fill-opacity="none" fill="none"/><path stroke="#FFFFFF" stroke-dasharray="none" stroke-opacity="1.0" stroke-width="3.2" id="id-50274136" d="M 594.476 313.456 C 606.627 333.376 618.777 353.295 630.928 373.215" fill-opacity="none" fill="none"/><rect id="id-41867264" x="378.578" y="211.161" width="293.322" height="215.141" fill="transparent"/><rect id="id-42493696" x="378.578" y="211.161" width="205.06" height="215.141" fill="transparent"/><path stroke="#FFFFFF" stroke-dasharray="none" stroke-opacity="1.0" stroke-width="5" id="id-52360488" d="M 568.572 249.426 C 570.56 254.23 572.366 259.109 573.979 264.036 C 575.592 268.962 577.013 273.936 578.232 278.927 C 579.451 283.918 580.469 288.927 581.281 293.924 C 582.092 298.922 582.696 303.907 583.09 308.852 C 583.483 313.797 583.666 318.701 583.638 323.536 C 583.609 328.37 583.369 333.135 582.918 337.803 C 582.468 342.47 581.807 347.04 580.94 351.486 C 580.073 355.931 578.999 360.253 577.725 364.424 C 576.452 368.596 574.978 372.618 573.313 376.467 C 571.648 380.316 569.792 383.992 567.755 387.473 C 565.718 390.954 563.5 394.24 561.115 397.312 C 558.73 400.384 556.177 403.242 553.472 405.87 C 550.766 408.497 547.908 410.894 544.915 413.045 C 541.921 415.197 538.791 417.104 535.544 418.755 C 532.297 420.406 528.933 421.801 525.47 422.932 C 522.008 424.063 518.448 424.929 514.811 425.527 C 511.174 426.124 507.46 426.452 503.691 426.509 C 499.922 426.566 496.098 426.352 492.241 425.868 C 488.384 425.384 484.495 424.629 480.595 423.61 C 476.696 422.59 472.787 421.305 468.89 419.762 C 464.994 418.219 461.111 416.418 457.263 414.37 C 453.415 412.321 449.604 410.025 445.85 407.496 C 442.096 404.966 438.401 402.202 434.785 399.22 C 431.169 396.239 427.633 393.04 424.198 389.641 C 420.762 386.243 417.427 382.646 414.212 378.871 C 410.997 375.096 407.903 371.142 404.946 367.035 C 401.989 362.927 399.171 358.664 396.507 354.272 C 393.843 349.88 391.334 345.358 388.995 340.732 C 386.655 336.107 384.485 331.379 382.497 326.574" fill-opacity="1.0" fill="#E8C11C"/><path stroke="#FFFFFF" stroke-dasharray="none" stroke-opacity="1.0" stroke-width="5" id="id-49454208" d="M 568.572 249.426 C 566.584 244.621 563.866 240.121 560.48 236.028 C 557.094 231.935 553.041 228.25 548.415 225.06 C 543.789 221.87 538.592 219.174 532.943 217.035 C 527.294 214.897 521.194 213.316 514.786 212.329 C 508.378 211.342 501.662 210.95 494.794 211.161 C 487.926 211.372 480.908 212.186 473.901 213.586 C 466.895 214.985 459.902 216.968 453.085 219.49 C 446.268 222.012 439.628 225.071 433.319 228.598 C 427.01 232.124 421.032 236.117 415.526 240.483 C 410.02 244.849 404.985 249.588 400.54 254.59 C 396.094 259.592 392.237 264.856 389.06 270.26 C 385.882 275.663 383.384 281.206 381.623 286.759 C 379.862 292.311 378.839 297.873 378.578 303.316 C 378.316 308.758 378.816 314.079 380.066 319.156 C 381.316 324.233 383.316 329.066 386.019 333.54 C 388.721 338.015 392.127 342.132 396.157 345.795 C 400.186 349.458 404.839 352.667 410.006 355.347 C 415.174 358.027 420.856 360.178 426.92 361.75 C 432.984 363.322 439.43 364.315 446.107 364.705 C 452.784 365.095 459.692 364.883 466.67 364.073 C 473.647 363.263 480.695 361.856 487.647 359.884 C 494.599 357.912 501.456 355.375 508.058 352.333 C 514.66 349.292 521.006 345.744 526.948 341.775 C 532.891 337.805 538.429 333.414 543.434 328.702 C 548.44 323.99 552.912 318.959 556.746 313.726 C 560.58 308.493 563.776 303.057 566.26 297.547 C 568.743 292.036 570.514 286.451 571.531 280.921 C 572.548 275.392 572.812 269.918 572.314 264.627 C 571.817 259.336 570.56 254.23 568.572 249.426 Z " fill-opacity="1.0" fill="#F4D345"/><rect id="id-40745792" x="382.316" y="213.301" width="186.256" height="150.379" fill="transparent"/><path stroke="#FFFFFF" stroke-dasharray="none" stroke-opacity="1.0" stroke-width="4.0" id="id-15758376" d="M 475.535 288.0 C 506.547 275.142 537.56 262.284 568.572 249.426" fill-opacity="none" fill="none"/><path stroke="#FFFFFF" stroke-dasharray="none" stroke-opacity="1.0" stroke-width="4.0" id="id-17929472" d="M 475.535 288.0 C 490.723 263.1 505.911 238.201 521.099 213.301" fill-opacity="none" fill="none"/><path stroke="#FFFFFF" stroke-dasharray="none" stroke-opacity="1.0" stroke-width="4.0" id="id-51819216" d="M 475.535 288.0 C 467.486 265.372 459.437 242.745 451.388 220.117" fill-opacity="none" fill="none"/><path stroke="#FFFFFF" stroke-dasharray="none" stroke-opacity="1.0" stroke-width="4.0" id="id-51820040" d="M 475.535 288.0 C 448.42 279.396 421.305 270.793 394.191 262.189" fill-opacity="none" fill="none"/><path stroke="#FFFFFF" stroke-dasharray="none" stroke-opacity="1.0" stroke-width="4.0" id="id-51820648" d="M 475.535 288.0 C 444.462 300.883 413.389 313.766 382.316 326.65" fill-opacity="none" fill="none"/><path stroke="#FFFFFF" stroke-dasharray="none" stroke-opacity="1.0" stroke-width="4.0" id="id-45454992" d="M 475.535 288.0 C 462.439 313.275 449.344 338.55 436.249 363.825" fill-opacity="none" fill="none"/><path stroke="#FFFFFF" stroke-dasharray="none" stroke-opacity="1.0" stroke-width="4.0" id="id-41821904" d="M 475.535 288.0 C 485.828 309.697 496.121 331.394 506.415 353.09" fill-opacity="none" fill="none"/><path stroke="#FFFFFF" stroke-dasharray="none" stroke-opacity="1.0" stroke-width="4.0" id="id-51819256" d="M 475.535 288.0 C 503.864 294.857 532.193 301.713 560.523 308.57" fill-opacity="none" fill="none"/></svg>